<svg xmlns="http://www.w3.org/2000/svg" width="350" height="350" viewBox="0 0 350 350">
  <path id="Icon_awesome-user-circle" data-name="Icon awesome-user-circle" d="M175,.563a175,175,0,1,0,175,175A174.97,174.97,0,0,0,175,.563ZM175,68.3a62.1,62.1,0,1,1-62.1,62.1A62.1,62.1,0,0,1,175,68.3Zm0,242.742A135.221,135.221,0,0,1,71.623,262.921c13.266-24.98,39.234-42.2,69.506-42.2a17.267,17.267,0,0,1,5.01.776A93.428,93.428,0,0,0,175,226.369a93.074,93.074,0,0,0,28.861-4.869,17.266,17.266,0,0,1,5.01-.776c30.272,0,56.24,17.218,69.506,42.2A135.221,135.221,0,0,1,175,311.046Z" transform="translate(0 -0.563)"/>
</svg>
